<?xml version="1.0" encoding="iso-8859-1"?>
<!-- Uploaded to: SVG Repo, www.svgrepo.com, Generator: SVG Repo Mixer Tools -->
<svg height="800px" width="800px" version="1.1" id="Layer_1" xmlns="http://www.w3.org/2000/svg" xmlns:xlink="http://www.w3.org/1999/xlink" 
	 viewBox="0 0 512.004 512.004" xml:space="preserve">
<g>
	<g>
		<path style="fill:#FFAF00;" d="M139.317,88.483c-8.563,8.775-15.281,17.452-15.281,17.452
			C58.933,207.453,71.071,512.004,71.071,512.004h35.31l25.591-61.793C123.719,202.589,139.238,88.986,139.317,88.483"/>
		<path style="fill:#FFAF00;" d="M372.689,88.483c8.563,8.775,15.281,17.452,15.281,17.452
			c65.103,101.517,52.966,406.069,52.966,406.069h-35.31l-25.591-61.793C388.287,202.589,372.768,88.986,372.689,88.483"/>
	</g>
	<path style="fill:#FF423D;" d="M380.037,441.379L380.037,441.379c8.254-247.614-7.265-352.388-7.345-352.892
		c-9.516-9.746-21.31-19.606-28.857-17.867c0,0,9.931-70.621-88.276-70.621s-88.276,70.621-88.276,70.621
		c-7.548-1.739-18.458,8.121-27.966,17.867c-0.079,0.503-15.598,105.278-7.345,352.892c16.666,22.228,42.831,35.31,70.621,35.31
		h106.823C337.205,476.69,363.361,463.607,380.037,441.379"/>
	<g>
		<path style="fill:#FFAF00;" d="M309.416,476.69H202.593c-19.359,0-37.853-6.471-52.966-17.832v44.314
			c0,4.873,3.946,8.828,8.828,8.828h194.207c4.873,0,8.828-3.955,8.828-8.828V459.52C346.527,470.466,328.395,476.69,309.416,476.69
			"/>
		<path style="fill:#FFAF00;" d="M211.417,114.759c-34.86,0-51.588-39.071-52.286-40.73c-1.88-4.502,0.247-9.666,4.74-11.555
			c4.502-1.863,9.657,0.238,11.546,4.723c0.124,0.3,12.941,29.908,35.999,29.908c4.873,0,8.828,3.955,8.828,8.828
			S216.29,114.759,211.417,114.759"/>
		<path style="fill:#FFAF00;" d="M299.693,114.759c-4.873,0-8.828-3.955-8.828-8.828s3.955-8.828,8.828-8.828
			c23.234,0,35.866-29.59,35.99-29.89c1.889-4.493,7.053-6.594,11.555-4.74c4.493,1.889,6.621,7.053,4.74,11.555
			C351.282,75.688,334.553,114.759,299.693,114.759"/>
		<path style="fill:#FFAF00;" d="M275.861,84.963l21.186-26.483c4.626-5.782,0.512-14.345-6.894-14.345h-69.199
			c-7.398,0-11.511,8.563-6.886,14.345l21.186,26.483c1.668,2.092,4.211,3.31,6.886,3.31h26.827
			C271.65,88.273,274.183,87.055,275.861,84.963"/>
		<path style="fill:#FFAF00;" d="M229.073,203.034c-4.873,0-8.828-3.955-8.828-8.828v-70.621c0-4.873,3.955-8.828,8.828-8.828
			c4.873,0,8.828,3.955,8.828,8.828v70.621C237.9,199.08,233.945,203.034,229.073,203.034"/>
		<path style="fill:#FFAF00;" d="M282.038,203.034c-4.873,0-8.828-3.955-8.828-8.828v-70.621c0-4.873,3.955-8.828,8.828-8.828
			s8.828,3.955,8.828,8.828v70.621C290.866,199.08,286.911,203.034,282.038,203.034"/>
	</g>
	<g>
		<path style="fill:#FF423D;" d="M387.969,467.862v1.501L405.624,512h35.31c0,0,0.715-17.028,0.865-44.138H387.969z"/>
		<path style="fill:#FF423D;" d="M124.005,467.862v1.501L106.35,512h-35.31c0,0-0.715-17.028-0.865-44.138H124.005z"/>
	</g>
	<g>
		<path style="fill:#FFAF00;" d="M211.417,344.276c0,34.127-19.765,61.793-44.138,61.793v35.31h88.276v-97.103H211.417z"/>
		<path style="fill:#FFAF00;" d="M299.693,344.276c0,34.127,19.765,61.793,44.138,61.793v35.31h-88.276v-97.103H299.693z"/>
	</g>
</g>
</svg>