<?xml version="1.0" encoding="iso-8859-1"?>
<!-- Uploaded to: SVG Repo, www.svgrepo.com, Generator: SVG Repo Mixer Tools -->
<svg height="800px" width="800px" version="1.1" id="Layer_1" xmlns="http://www.w3.org/2000/svg" xmlns:xlink="http://www.w3.org/1999/xlink" 
	 viewBox="0 0 512.001 512.001" xml:space="preserve">
<path style="fill:#FFAF00;" d="M228.785,135.816l-42.731-45.96c-9.447-10.16-2.227-26.772,11.664-26.772h116.563
	c13.875,0,21.122,16.599,11.664,26.772l-42.726,45.954C268.531,151.594,243.489,151.615,228.785,135.816z"/>
<path style="fill:#FF9B00;" d="M314.283,63.085H256v84.572c9.937-0.001,19.874-3.952,27.22-11.846l42.726-45.954
	C335.405,79.683,328.158,63.085,314.283,63.085z"/>
<path style="fill:#FF423D;" d="M346.919,448.926H165.081c-8.796,0-15.927-7.131-15.927-15.927V383.4
	c0-8.796,7.131-15.927,15.927-15.927h181.838c8.796,0,15.927,7.131,15.927,15.927v49.599
	C362.846,441.795,355.715,448.926,346.919,448.926z"/>
<path style="fill:#F32E28;" d="M346.919,367.472H256v81.453h90.919c8.796,0,15.927-7.131,15.927-15.927v-49.599
	C362.846,374.603,355.715,367.472,346.919,367.472z"/>
<path style="fill:#FFC72D;" d="M509.864,305.439l-15.152-26.258l-15.938-27.596L386.813,92.263
	c-10.406-18.008-29.794-29.189-50.584-29.189h-21.937c-4.627,0-8.896,2.042-11.669,5.097l-42.726,45.944
	c-2.123,2.269-5.677,2.257-7.794,0.011l-42.716-45.954c-3.28-3.45-7.434-5.097-11.68-5.097h-21.937
	c-20.779,0-40.157,11.181-50.573,29.199L2.136,305.439c-4.396,7.62-1.792,17.348,5.829,21.756l69.42,40.072
	c7.624,4.396,17.36,1.784,21.756-5.829l36.186-62.678v84.635c0,8.792,7.135,15.927,15.927,15.927h209.502
	c8.792,0,15.927-7.135,15.927-15.927v-84.614l5.086,8.813l15.927,27.585l15.162,26.258c4.396,7.613,14.132,10.225,21.756,5.829
	l69.42-40.072C511.65,322.79,514.264,313.066,509.864,305.439z"/>
<path style="fill:#FFAF00;" d="M509.864,305.439l-15.152-26.258l-15.938-27.596L386.813,92.263
	c-10.406-18.008-29.794-29.189-50.584-29.189h-21.937c-4.627,0-8.896,2.042-11.669,5.097l-42.726,45.944
	c-1.061,1.134-2.479,1.698-3.897,1.699v283.509h104.756c8.792,0,15.927-7.135,15.927-15.927v-84.614l5.086,8.813l15.927,27.585
	l15.162,26.258c4.396,7.613,14.132,10.225,21.756,5.829l69.42-40.072C511.65,322.79,514.264,313.066,509.864,305.439z"/>
<polygon style="fill:#FF423D;" points="17.288,279.181 114.304,335.18 130.231,307.594 33.226,251.585 "/>
<polygon style="fill:#F32E28;" points="494.712,279.181 397.696,335.18 381.769,307.594 478.775,251.585 "/>
</svg>