<?xml version="1.0" encoding="utf-8"?>
<!-- Uploaded to: SVG Repo, www.svgrepo.com, Generator: SVG Repo Mixer Tools -->
<svg width="800px" height="800px" viewBox="0 0 1024 1024" class="icon"  version="1.1" xmlns="http://www.w3.org/2000/svg"><path d="M768 464c0 80 0 264 16 480H240c16-216 16-400 16-480l-136-56s28.88-128 40-184c18.08-91.04 151.52-140.88 224-144h256c72.48 2.96 205.92 52.8 224 144 11.12 56 40 184 40 184z" fill="#3f3f3f" /><path d="M640 80c0 88-57.36 160-128 160s-128-71.52-128-160z" fill="#5f5f5f" /><path d="M202.72 145.36A132.24 132.24 0 0 0 160 216c-11.12 56-40 192-40 192l144 56c0-107.36 8.8-228.32-61.28-318.64zM864 216a132.24 132.24 0 0 0-42.72-70.64C751.2 235.68 760 356.64 760 464l144-56s-28.88-136-40-192z" fill="##0f0f0f" /><path d="M784 944H240q2.16-28.4 3.84-56h536q2 27.6 4.16 56z" fill="##0f0f0f" /></svg>